<svg id="visual" viewBox="0 0 960 540" width="960" height="540" xmlns="http://www.w3.org/2000/svg" xmlns:xlink="http://www.w3.org/1999/xlink" version="1.1"><g stroke-width="1" stroke-linejoin="bevel"><path d="M472 229L466 149L316 146Z" fill="#141413" stroke="#141413"></path><path d="M316 146L289 222L472 229Z" fill="#181817" stroke="#181817"></path><path d="M466 149L371 0L316 146Z" fill="#242423" stroke="#242423"></path><path d="M466 149L481 0L371 0Z" fill="#121211" stroke="#121211"></path><path d="M650 132L481 0L466 149Z" fill="#20201f" stroke="#20201f"></path><path d="M289 222L296 435L472 229Z" fill="#20201f" stroke="#20201f"></path><path d="M483 440L633 288L472 229Z" fill="#161615" stroke="#161615"></path><path d="M472 229L650 132L466 149Z" fill="#20201f" stroke="#20201f"></path><path d="M296 435L483 440L472 229Z" fill="#242423" stroke="#242423"></path><path d="M371 0L213 0L316 146Z" fill="#242423" stroke="#242423"></path><path d="M139 96L129 262L289 222Z" fill="#1a1a19" stroke="#1a1a19"></path><path d="M289 222L129 262L296 435Z" fill="#1e1e1d" stroke="#1e1e1d"></path><path d="M633 288L650 132L472 229Z" fill="#1e1e1d" stroke="#1e1e1d"></path><path d="M139 96L289 222L316 146Z" fill="#242423" stroke="#242423"></path><path d="M213 0L139 96L316 146Z" fill="#20201f" stroke="#20201f"></path><path d="M650 132L639 0L481 0Z" fill="#242423" stroke="#242423"></path><path d="M130 540L365 540L296 435Z" fill="#1e1e1d" stroke="#1e1e1d"></path><path d="M296 435L365 540L483 440Z" fill="#1e1e1d" stroke="#1e1e1d"></path><path d="M129 262L127 425L296 435Z" fill="#161615" stroke="#161615"></path><path d="M365 540L475 540L483 440Z" fill="#242423" stroke="#242423"></path><path d="M483 440L664 433L633 288Z" fill="#1e1e1d" stroke="#1e1e1d"></path><path d="M670 540L664 433L483 440Z" fill="#222221" stroke="#222221"></path><path d="M793 284L775 81L650 132Z" fill="#20201f" stroke="#20201f"></path><path d="M0 136L0 251L129 262Z" fill="#1e1e1d" stroke="#1e1e1d"></path><path d="M129 262L0 375L127 425Z" fill="#0f100f" stroke="#0f100f"></path><path d="M0 136L129 262L139 96Z" fill="#20201f" stroke="#20201f"></path><path d="M0 0L0 136L139 96Z" fill="#121211" stroke="#121211"></path><path d="M793 284L650 132L633 288Z" fill="#121211" stroke="#121211"></path><path d="M650 132L775 81L639 0Z" fill="#242423" stroke="#242423"></path><path d="M664 433L793 284L633 288Z" fill="#0f100f" stroke="#0f100f"></path><path d="M0 251L0 375L129 262Z" fill="#1a1a19" stroke="#1a1a19"></path><path d="M127 425L130 540L296 435Z" fill="#161615" stroke="#161615"></path><path d="M960 0L774 0L775 81Z" fill="#242423" stroke="#242423"></path><path d="M775 81L774 0L639 0Z" fill="#222221" stroke="#222221"></path><path d="M0 540L130 540L127 425Z" fill="#222221" stroke="#222221"></path><path d="M213 0L0 0L139 96Z" fill="#20201f" stroke="#20201f"></path><path d="M664 433L828 414L793 284Z" fill="#161615" stroke="#161615"></path><path d="M475 540L670 540L483 440Z" fill="#121211" stroke="#121211"></path><path d="M817 540L828 414L664 433Z" fill="#141413" stroke="#141413"></path><path d="M793 284L960 145L775 81Z" fill="#181817" stroke="#181817"></path><path d="M0 375L0 540L127 425Z" fill="#1c1c1b" stroke="#1c1c1b"></path><path d="M670 540L817 540L664 433Z" fill="#222221" stroke="#222221"></path><path d="M960 321L960 145L793 284Z" fill="#181817" stroke="#181817"></path><path d="M960 321L793 284L828 414Z" fill="#141413" stroke="#141413"></path><path d="M960 386L960 321L828 414Z" fill="#0f100f" stroke="#0f100f"></path><path d="M960 540L960 386L828 414Z" fill="#141413" stroke="#141413"></path><path d="M960 145L960 0L775 81Z" fill="#222221" stroke="#222221"></path><path d="M817 540L960 540L828 414Z" fill="#0f100f" stroke="#0f100f"></path></g></svg>